<?xml version="1.0" encoding="UTF-8"?>
<svg version="1.1" xmlns="http://www.w3.org/2000/svg" width="267" height="243" viewBox="0 0 267 243" aria-hidden="true">
<path d="M0 0 C-2.85391969 3.06779658 -5.71503594 5.18048099 -9.3125 7.3125 C-20.6148078 14.44764391 -27.35808021 24.51158635 -32 37 C-10.90099281 39.41951962 9.73828656 39.61684413 27.875 27 C30.18032139 24.83028575 32.10205299 22.53059601 34 20 C35.65 20.33 37.3 20.66 39 21 C40.04173252 24.2062212 40.21252031 25.55528158 38.734375 28.6484375 C31.81381641 38.15739398 23.50987836 44.25771354 12 47 C11.19046875 47.20367187 10.3809375 47.40734375 9.546875 47.6171875 C-5.47196885 50.74968922 -21.80776758 49.32517915 -37 48 C-41.99647289 63.05409794 -44.90062877 77.69745854 -46.4453125 93.46875 C-49.29563977 122.02438228 -61.26186132 145.8113175 -79 168 C-81.38239915 170.68875721 -81.38239915 170.68875721 -82 174 C-78.37649379 175.17134222 -74.75096001 176.33627802 -71.125 177.5 C-69.57619141 178.00080078 -69.57619141 178.00080078 -67.99609375 178.51171875 C-67.00996094 178.82753906 -66.02382812 179.14335937 -65.0078125 179.46875 C-64.09660645 179.76201172 -63.18540039 180.05527344 -62.24658203 180.35742188 C-60.0689637 181.0916657 -60.0689637 181.0916657 -58 181 C-42.8400036 161.29200468 -32.94052116 135.05586108 -30.5 110.5 C-29.49448603 100.38279157 -28.37076833 89.87344332 -23 81 C-20.29120665 79.64560332 -17.99066732 79.93498549 -15 80 C-14 83 -14 83 -14.6875 86.6875 C-16.48535342 102.17859314 -7.12727143 125.60598851 0 139 C0.20044922 138.13648926 0.40089844 137.27297852 0.60742188 136.38330078 C19.7268725 54.51866896 19.7268725 54.51866896 40.8125 38.9375 C46.14262803 35.69761826 50.88063874 35.28623313 57 36 C60.23939656 37.73539102 62.42321134 39.42321134 65 42 C65.125 45.625 65.125 45.625 65 49 C62.47311106 48.39354665 60.29197547 47.7026297 57.875 46.6875 C52.32922446 45.70357208 48.80017623 47.21060625 44 50 C32.52450571 58.58039701 26.53072666 72.83404598 22 86 C21.70657715 86.85029785 21.4131543 87.7005957 21.11083984 88.57666016 C12.32929518 114.53019479 6.23548667 141.73834765 1.67114258 168.74243164 C0.17789345 176.96073579 0.17789345 176.96073579 -4 180 C-6.375 179.5625 -6.375 179.5625 -9 178 C-10.34211475 173.82453188 -10.9022236 169.80621089 -11.4296875 165.45703125 C-13.47590618 150.03053414 -18.84780429 135.61113565 -24 121 C-24.49306641 122.90845703 -24.49306641 122.90845703 -24.99609375 124.85546875 C-30.56993218 145.73632574 -38.7554593 166.07918216 -51 184 C-50.3709375 184.06058594 -49.741875 184.12117187 -49.09375 184.18359375 C-48.2378125 184.26738281 -47.381875 184.35117188 -46.5 184.4375 C-45.6646875 184.51871094 -44.829375 184.59992188 -43.96875 184.68359375 C-41.74688877 184.92039738 -39.52967098 185.20150036 -37.31591797 185.50488281 C-33.20533185 186.01910125 -29.11673017 186.19268816 -24.9765625 186.23828125 C-24.23713409 186.24816574 -23.49770569 186.25805023 -22.73587036 186.26823425 C-0.53172471 186.50428126 22.44551638 186.59335066 40.328125 171.24609375 C43 169 43 169 45 169 C45.2475 168.443125 45.495 167.88625 45.75 167.3125 C47 165 47 165 48.875 162.9375 C55.05218711 154.39844723 56.94046142 143.33144579 56 133 C53.59944371 122.14398111 46.97018572 112.50338464 38 106 C38.33 104.35 38.66 102.7 39 101 C39.99 100.67 40.98 100.34 42 100 C51.55335564 105.38907242 59.56939872 114.60904583 63 125 C66.590145 139.06140124 62.71249699 154.30684522 56.01171875 166.78125 C52.88222041 171.78844735 49.22335684 175.89531599 45 180 C44.25105469 180.75796875 43.50210938 181.5159375 42.73046875 182.296875 C23.86530202 200.44247484 -2.33178681 208.56794579 -28.12060547 208.28588867 C-36.6839373 208.05869107 -45.1178647 207.32095173 -53.2890625 204.625 C-57.61268733 203.25375942 -61.44284928 202.20900193 -66 202 C-69.37390689 204.01093788 -71.29571281 206.19872403 -73.75 209.25 C-80.79470962 217.86020065 -93.28392291 221.79530183 -104 223 C-113.3214855 223.50334086 -123.27174422 223.83538183 -132 220 C-132.33 219.01 -132.66 218.02 -133 217 C-131.73893433 216.94054199 -131.73893433 216.94054199 -130.45239258 216.87988281 C-127.2663134 216.72159548 -124.08147958 216.54818417 -120.89672852 216.36523438 C-119.53082883 216.2897155 -118.16460237 216.21984697 -116.7980957 216.15625 C-105.25900093 215.61303406 -93.79234238 214.18763164 -84 207.5625 C-83.154375 207.00691406 -82.30875 206.45132813 -81.4375 205.87890625 C-78.72014126 203.78427556 -76.37467216 201.47220334 -74 199 C-77.04111749 197.39479066 -80.08299233 195.79102164 -83.125 194.1875 C-83.9809375 193.73568359 -84.836875 193.28386719 -85.71875 192.81835938 C-87.39209586 191.93663483 -89.06815513 191.06003794 -90.74707031 190.18896484 C-92.60351366 189.20924236 -94.42791674 188.16905568 -96.2421875 187.11328125 C-99.74366067 185.69979704 -101.39072383 185.94653107 -105 187 C-107.46914013 188.06996072 -109.84928212 189.17278675 -112.25 190.375 C-128.50307169 198.22639798 -145.51727699 200.79142313 -163 195 C-169.66865225 192.13838847 -174.93996201 189.09005698 -179 183 C-181.05764538 176.82706385 -181.13095462 169.48810016 -178.4375 163.5625 C-177.633125 162.716875 -176.82875 161.87125 -176 161 C-175.2884375 160.23623047 -175.2884375 160.23623047 -174.5625 159.45703125 C-166.57332129 151.67910486 -155.7865744 149.92009945 -145 150 C-131.78618875 150.75394118 -117.11975223 157.07638069 -106 164 C-106.68379546 167.95008059 -107.78843183 170.63457018 -110 174 C-115.50135997 173.52526335 -119.0596932 172.12470417 -123.75 169.25 C-124.97446072 168.51990099 -126.20105173 167.79336352 -127.4296875 167.0703125 C-128.03135742 166.71614258 -128.63302734 166.36197266 -129.25292969 165.99707031 C-138.24816098 160.86340282 -148.95597769 155.85749326 -159.44921875 158.65234375 C-165.55027542 160.77722597 -169.56961046 163.47116704 -173 169 C-174.26827299 171.74792481 -174.2989935 173.05059855 -173.3984375 175.91015625 C-171.13055027 181.18545914 -168.20489045 184.54187642 -163 187 C-148.7855085 191.84895996 -136.14170912 190.30915514 -122.6875 183.75 C-112.97435853 178.92216637 -107.18285382 172.78280502 -102.25 163.25 C-101.74903809 162.30479492 -101.24807617 161.35958984 -100.73193359 160.38574219 C-90.41548596 140.57533543 -82.23004805 120.35065085 -75.92578125 98.96875 C-75.160167 96.37461017 -74.39315721 93.78088795 -73.625 91.1875 C-73.43350372 90.54022949 -73.24200745 89.89295898 -73.04470825 89.22607422 C-70.5379835 80.7813695 -67.87507744 72.42640898 -64.75 64.1875 C-64.29294678 62.97259888 -64.29294678 62.97259888 -63.82666016 61.7331543 C-61.66989442 56.21437138 -58.98822473 51.11259465 -56 46 C-58.62418097 45.51595734 -61.24921597 45.03770502 -63.875 44.5625 C-64.60203125 44.42779297 -65.3290625 44.29308594 -66.078125 44.15429688 C-90.17104392 39.8217983 -116.11204006 39.17570247 -137.1171875 53.4375 C-142.50836864 57.69491343 -146.54624202 63.23578172 -148 70 C-148.1718388 72.78604211 -148.27636624 75.52538283 -148.3125 78.3125 C-148.35600586 79.41368164 -148.35600586 79.41368164 -148.40039062 80.53710938 C-148.47517267 87.02013783 -146.56360992 91.07016009 -142.25 96 C-140.39876937 98.96196901 -140.80349371 101.59389099 -141 105 C-142.75390625 105.68359375 -142.75390625 105.68359375 -145 106 C-151.48214164 102.19834635 -156.39287695 95.74904862 -158.78125 88.69140625 C-161.32139763 78.24672028 -159.74603266 67.5786191 -155 58 C-146.66957884 44.67132614 -133.67491165 35.96836485 -118.5625 32.0625 C-105.15978334 29.7111462 -91.68664951 30.34392215 -78.30078125 32.4296875 C-60.51828712 36.37423949 -60.51828712 36.37423949 -43.921875 32.2421875 C-40.96265687 29.17779715 -38.91380288 25.73260236 -37.02539062 21.93212891 C-35.56064743 19.17213423 -33.60552391 17.16603597 -31.375 15 C-30.31925781 13.97326172 -30.31925781 13.97326172 -29.2421875 12.92578125 C-22.63920259 7.25457644 -9.24477718 -3.08159239 0 0 Z " fill="#D0AB78" transform="translate(192,6)"/>
<path d="M0 0 C7.92 0 15.84 0 24 0 C24 0.99 24 1.98 24 3 C15.88611956 4.21521251 8.14648632 3.76299944 0 3 C0 2.01 0 1.02 0 0 Z " fill="#000000" transform="translate(223,220)"/>
<path d="M0 0 C0 3 0 3 -1.19335938 4.53393555 C-1.73798828 5.062854 -2.28261719 5.59177246 -2.84375 6.13671875 C-3.72353516 7.00200195 -3.72353516 7.00200195 -4.62109375 7.88476562 C-5.24113281 8.47966797 -5.86117187 9.07457031 -6.5 9.6875 C-7.12003906 10.29400391 -7.74007812 10.90050781 -8.37890625 11.52539062 C-9.91264707 13.02373743 -11.45548198 14.51276493 -13 16 C-13.66 15.34 -14.32 14.68 -15 14 C-12.87801168 11.85111324 -10.75260401 9.70581417 -8.625 7.5625 C-8.02171875 6.95083984 -7.4184375 6.33917969 -6.796875 5.70898438 C-6.21679688 5.12568359 -5.63671875 4.54238281 -5.0390625 3.94140625 C-4.23782959 3.13231812 -4.23782959 3.13231812 -3.42041016 2.30688477 C-2 1 -2 1 0 0 Z " fill="#B89668" transform="translate(167,16)"/>
<path d="M0 0 C3.63 0 7.26 0 11 0 C10.67 0.99 10.34 1.98 10 3 C8.02 3 6.04 3 4 3 C4 3.66 4 4.32 4 5 C3.01 5 2.02 5 1 5 C0.67 3.35 0.34 1.7 0 0 Z " fill="#000000" transform="translate(205,220)"/>
<path d="M0 0 C1.79244141 0.01740234 1.79244141 0.01740234 3.62109375 0.03515625 C5.41740234 0.04869141 5.41740234 0.04869141 7.25 0.0625 C8.17683594 0.07410156 9.10367188 0.08570313 10.05859375 0.09765625 C9.72859375 1.08765625 9.39859375 2.07765625 9.05859375 3.09765625 C7.45480034 3.15181813 5.85047969 3.19052263 4.24609375 3.22265625 C3.35277344 3.24585938 2.45945313 3.2690625 1.5390625 3.29296875 C-0.94140625 3.09765625 -0.94140625 3.09765625 -3.94140625 1.09765625 C-2.94140625 0.09765625 -2.94140625 0.09765625 0 0 Z " fill="#000000" transform="translate(181.94140625,218.90234375)"/>
<path d="M0 0 C-2.77280706 3.08089673 -5.06326356 4.68775452 -9 6 C-9 5.34 -9 4.68 -9 4 C-8.01 3.34 -7.02 2.68 -6 2 C-7.32 1.67 -8.64 1.34 -10 1 C-3.375 -1.125 -3.375 -1.125 0 0 Z " fill="#786347" transform="translate(192,6)"/>
<path d="M0 0 C4.29 0 8.58 0 13 0 C13 0.33 13 0.66 13 1 C10.03 1 7.06 1 4 1 C4 1.66 4 2.32 4 3 C2.68 2.67 1.36 2.34 0 2 C0 1.34 0 0.68 0 0 Z " fill="#987B55" transform="translate(59,223)"/>
<path d="M0 0 C0.66 0 1.32 0 2 0 C0.55746343 3.36591866 -1.33264727 5.51047079 -4 8 C-4.66 7.67 -5.32 7.34 -6 7 C-5.04882866 5.8274869 -4.08882991 4.66212985 -3.125 3.5 C-2.59132812 2.8503125 -2.05765625 2.200625 -1.5078125 1.53125 C-0.76144531 0.77328125 -0.76144531 0.77328125 0 0 Z " fill="#B28D64" transform="translate(230,47)"/>
<path d="M0 0 C1.65 0 3.3 0 5 0 C5 0.99 5 1.98 5 3 C3.35 3 1.7 3 0 3 C0 2.01 0 1.02 0 0 Z " fill="#000000" transform="translate(172,219)"/>
<path d="M0 0 C2.31 0 4.62 0 7 0 C7 0.66 7 1.32 7 2 C4.69 2 2.38 2 0 2 C0 1.34 0 0.68 0 0 Z " fill="#000000" transform="translate(197,220)"/>
<path d="M0 0 C1.32 0.33 2.64 0.66 4 1 C4 1.66 4 2.32 4 3 C2.68 2.67 1.36 2.34 0 2 C0 1.34 0 0.68 0 0 Z " fill="#000000" transform="translate(118,223)"/>
<path d="M0 0 C1.32 0.33 2.64 0.66 4 1 C4 1.66 4 2.32 4 3 C2.68 2.67 1.36 2.34 0 2 C0 1.34 0 0.68 0 0 Z " fill="#000000" transform="translate(217,220)"/>
<path d="M0 0 C0.99 0 1.98 0 3 0 C3 0.99 3 1.98 3 3 C2.01 3 1.02 3 0 3 C0 2.01 0 1.02 0 0 Z " fill="#717171" transform="translate(30,9)"/>
<path d="M0 0 C1.32 0.33 2.64 0.66 4 1 C2.68 1.33 1.36 1.66 0 2 C0 1.34 0 0.68 0 0 Z " fill="#000000" transform="translate(248,221)"/>
<path d="M0 0 C1.32 0 2.64 0 4 0 C4 0.66 4 1.32 4 2 C2.68 1.67 1.36 1.34 0 1 C0 0.67 0 0.34 0 0 Z " fill="#000000" transform="translate(134,218)"/>
<path d="M0 0 C0.66 0 1.32 0 2 0 C2 0.99 2 1.98 2 3 C1.01 2.67 0.02 2.34 -1 2 C-0.67 1.34 -0.34 0.68 0 0 Z " fill="#6B6B6B" transform="translate(28,12)"/>
<path d="M0 0 C0.99 0.33 1.98 0.66 3 1 C2.01 1.33 1.02 1.66 0 2 C0 1.34 0 0.68 0 0 Z " fill="#000000" transform="translate(161,219)"/>
<path d="M0 0 C0.99 0 1.98 0 3 0 C3 0.66 3 1.32 3 2 C2.01 1.67 1.02 1.34 0 1 C0 0.67 0 0.34 0 0 Z " fill="#000000" transform="translate(125,218)"/>
<path d="M0 0 C0.99 0 1.98 0 3 0 C3 0.66 3 1.32 3 2 C2.01 1.67 1.02 1.34 0 1 C0 0.67 0 0.34 0 0 Z " fill="#000000" transform="translate(84,217)"/>
<path d="M0 0 C0.66 0 1.32 0 2 0 C2 0.66 2 1.32 2 2 C1.34 2 0.68 2 0 2 C0 1.34 0 0.68 0 0 Z " fill="#000000" transform="translate(119,230)"/>
<path d="M0 0 C0.66 0 1.32 0 2 0 C2 0.66 2 1.32 2 2 C1.34 2 0.68 2 0 2 C0 1.34 0 0.68 0 0 Z " fill="#000000" transform="translate(194,220)"/>
<path d="M0 0 C4 1 4 1 4 1 Z " fill="#000000" transform="translate(150,219)"/>
<path d="M0 0 C2 1 2 1 2 1 Z " fill="#000000" transform="translate(218,228)"/>
<path d="M0 0 C2 1 2 1 2 1 Z " fill="#000000" transform="translate(122,227)"/>
<path d="M0 0 C2 1 2 1 2 1 Z " fill="#000000" transform="translate(165,219)"/>
<path d="" fill="#000000" transform="translate(0,0)"/>
</svg>
