<svg width="366" height="275" viewBox="0 0 366 275" fill="none" xmlns="http://www.w3.org/2000/svg">
<rect y="205" width="164" height="69.804" rx="34.902" fill="url(#paint0_linear_144_204)" fill-opacity="0.05"/>
<path d="M65.1819 235.687H62.1497C61.9704 234.815 61.6565 234.048 61.2082 233.388C60.7681 232.728 60.2301 232.174 59.5943 231.725C58.9667 231.269 58.2697 230.926 57.5035 230.698C56.7373 230.47 55.9385 230.356 55.1071 230.356C53.591 230.356 52.2175 230.739 50.9867 231.505C49.764 232.271 48.7899 233.4 48.0645 234.892C47.3472 236.384 46.9885 238.214 46.9885 240.382C46.9885 242.55 47.3472 244.38 48.0645 245.872C48.7899 247.363 49.764 248.492 50.9867 249.258C52.2175 250.025 53.591 250.408 55.1071 250.408C55.9385 250.408 56.7373 250.294 57.5035 250.065C58.2697 249.837 58.9667 249.499 59.5943 249.051C60.2301 248.594 60.7681 248.036 61.2082 247.376C61.6565 246.707 61.9704 245.941 62.1497 245.077H65.1819C64.9537 246.357 64.538 247.502 63.9348 248.513C63.3316 249.523 62.5817 250.383 61.6851 251.092C60.7884 251.793 59.7818 252.327 58.6651 252.694C57.5565 253.061 56.3705 253.244 55.1071 253.244C52.9715 253.244 51.0723 252.723 49.4094 251.679C47.7466 250.636 46.4383 249.152 45.4846 247.229C44.5309 245.305 44.0541 243.023 44.0541 240.382C44.0541 237.741 44.5309 235.459 45.4846 233.535C46.4383 231.611 47.7466 230.128 49.4094 229.084C51.0723 228.041 52.9715 227.519 55.1071 227.519C56.3705 227.519 57.5565 227.703 58.6651 228.069C59.7818 228.436 60.7884 228.974 61.6851 229.683C62.5817 230.384 63.3316 231.24 63.9348 232.251C64.538 233.254 64.9537 234.399 65.1819 235.687ZM72.5761 227.862V252.902H69.6905V227.862H72.5761ZM77.8611 252.902V234.122H80.7466V252.902H77.8611ZM79.3283 230.992C78.7658 230.992 78.2809 230.8 77.8733 230.417C77.4739 230.034 77.2742 229.573 77.2742 229.035C77.2742 228.497 77.4739 228.037 77.8733 227.654C78.2809 227.271 78.7658 227.079 79.3283 227.079C79.8907 227.079 80.3716 227.271 80.771 227.654C81.1786 228.037 81.3824 228.497 81.3824 229.035C81.3824 229.573 81.1786 230.034 80.771 230.417C80.3716 230.8 79.8907 230.992 79.3283 230.992ZM93.6611 253.293C91.9004 253.293 90.3843 252.878 89.1127 252.046C87.8412 251.215 86.863 250.069 86.1783 248.61C85.4936 247.151 85.1513 245.484 85.1513 243.61C85.1513 241.702 85.5018 240.019 86.2028 238.56C86.9119 237.093 87.8982 235.948 89.1616 235.124C90.4332 234.293 91.9167 233.877 93.6122 233.877C94.9327 233.877 96.1227 234.122 97.1824 234.611C98.242 235.1 99.1101 235.785 99.7867 236.665C100.463 237.545 100.883 238.572 101.046 239.746H98.1605C97.9405 238.89 97.4514 238.132 96.6933 237.472C95.9434 236.803 94.9327 236.469 93.6611 236.469C92.5362 236.469 91.5499 236.763 90.7022 237.35C89.8626 237.928 89.2065 238.748 88.7337 239.807C88.2691 240.859 88.0368 242.094 88.0368 243.512C88.0368 244.963 88.265 246.226 88.7215 247.302C89.1861 248.378 89.8382 249.214 90.6778 249.809C91.5255 250.404 92.5199 250.701 93.6611 250.701C94.411 250.701 95.0916 250.571 95.703 250.31C96.3143 250.049 96.8319 249.674 97.2558 249.185C97.6796 248.696 97.9812 248.109 98.1605 247.424H101.046C100.883 248.533 100.48 249.531 99.8356 250.42C99.1998 251.3 98.3562 252.001 97.3047 252.523C96.2613 253.037 95.0468 253.293 93.6611 253.293ZM107.954 246.055L107.905 242.485H108.492L116.709 234.122H120.279L111.524 242.974H111.28L107.954 246.055ZM105.264 252.902V227.862H108.15V252.902H105.264ZM117.198 252.902L109.862 243.61L111.916 241.604L120.866 252.902H117.198Z" fill="white" fill-opacity="0.5"/>
<rect x="-0.529608" y="0.529608" width="151.998" height="63.553" transform="matrix(-1 0 0 1 156.984 131.986)" stroke="#E6BC82" stroke-width="1.05922"/>
<rect x="-0.397206" y="0.397206" width="4.76647" height="4.76647" transform="matrix(-1 0 0 1 159.896 192.361)" fill="white" stroke="#E6BC82" stroke-width="0.794412"/>
<rect x="-0.397206" y="0.397206" width="4.76647" height="4.76647" transform="matrix(-1 0 0 1 7.76662 130)" fill="white" stroke="#E6BC82" stroke-width="0.794412"/>
<rect x="-0.397206" y="0.397206" width="4.76647" height="4.76647" transform="matrix(-1 0 0 1 7.76662 193.553)" fill="white" stroke="#E6BC82" stroke-width="0.794412"/>
<rect x="-0.397206" y="0.397206" width="4.76647" height="4.76647" transform="matrix(-1 0 0 1 159.233 130)" fill="#D9D9D9" stroke="#E6BC82" stroke-width="0.794412"/>
<path d="M170.854 242.796L176.507 219.863L176.58 219.567L176.885 219.551L200.475 218.366L156.659 195.414L170.854 242.796Z" fill="#0C0C0C" stroke="#CECECE" stroke-width="0.821522"/>
<path d="M68.7973 12.5419V13.8825C67.9483 14.0613 67.0098 14.5752 65.982 15.4242C64.9542 16.2286 64.1275 17.6586 63.5018 19.7142L50.8329 60.3352C50.7436 60.3352 50.6542 60.3352 50.5648 60.3352C50.4754 60.3352 50.3861 60.3352 50.2967 60.3352C50.2073 60.3352 50.1179 60.3352 50.0286 60.3352C49.9392 60.3352 49.8498 60.3352 49.7604 60.3352L35.5498 18.1725C34.9689 16.4297 34.3209 15.2902 33.6059 14.7539C32.8909 14.2177 32.2206 13.9272 31.595 13.8825V12.5419C32.3994 12.5866 33.4048 12.6313 34.6114 12.676C35.818 12.7206 36.9798 12.743 38.097 12.743C39.8398 12.743 41.4709 12.7206 42.9903 12.676C44.5097 12.6313 45.7386 12.5866 46.677 12.5419V13.8825C45.3364 13.9272 44.2639 14.0613 43.4595 14.2847C42.6998 14.5081 42.253 14.9997 42.1189 15.7594C42.0295 16.5191 42.253 17.7703 42.7892 19.5131L52.7769 50.4145L51.8384 51.2189L60.6865 23.401C61.4909 20.9431 61.8484 19.0439 61.759 17.7033C61.7143 16.318 61.2228 15.3572 60.2843 14.821C59.3459 14.24 57.9383 13.9272 56.0614 13.8825V12.5419C57.3573 12.5866 58.6756 12.6313 60.0162 12.676C61.3568 12.7206 62.6081 12.743 63.77 12.743C64.9318 12.743 65.8926 12.7206 66.6523 12.676C67.412 12.6313 68.127 12.5866 68.7973 12.5419ZM21.9425 12.5419V13.8825C20.7806 13.9719 19.9316 14.1953 19.3953 14.5528C18.9037 14.9103 18.658 15.4913 18.658 16.2956C18.7027 17.0553 18.9484 18.1278 19.3953 19.5131L29.7851 51.2189L28.1094 52.8947L37.4937 22.9317L38.4992 24.5405L27.4391 60.3352C27.3497 60.3352 27.2603 60.3352 27.1709 60.3352C27.0816 60.3352 26.9922 60.3352 26.9028 60.3352C26.8134 60.3352 26.7241 60.3352 26.6347 60.3352C26.5453 60.3352 26.4559 60.3352 26.3666 60.3352L12.1559 18.1725C11.575 16.4297 10.8377 15.2902 9.94391 14.7539C9.05016 14.2177 8.24578 13.9272 7.53078 13.8825V12.5419C8.42453 12.5866 9.51937 12.6313 10.8153 12.676C12.1559 12.7206 13.4519 12.743 14.7031 12.743C16.1778 12.743 17.5408 12.7206 18.792 12.676C20.088 12.6313 21.1381 12.5866 21.9425 12.5419ZM82.2664 24.5405C86.1989 24.5405 89.26 25.747 91.4497 28.1602C93.684 30.5286 94.8012 34.2377 94.8012 39.2874H71.1392L71.0722 38.0138H88.3662C88.4556 35.8241 88.2769 33.8131 87.83 31.981C87.3831 30.1041 86.6681 28.607 85.685 27.4899C84.7466 26.3727 83.5176 25.8141 81.9983 25.8141C79.9426 25.8141 78.1105 26.8419 76.5017 28.8975C74.9376 30.9531 73.9992 34.2153 73.6864 38.6841L73.8875 38.9522C73.7981 39.6225 73.7311 40.3599 73.6864 41.1642C73.6417 41.9686 73.6194 42.773 73.6194 43.5774C73.6194 46.6161 74.1109 49.2303 75.0941 51.42C76.0772 53.6097 77.3508 55.2855 78.9148 56.4473C80.5236 57.5645 82.177 58.1231 83.8751 58.1231C85.2158 58.1231 86.4894 57.922 87.6959 57.5198C88.9025 57.073 90.0197 56.358 91.0475 55.3748C92.0753 54.3917 92.969 53.0734 93.7287 51.42L95.0694 51.9563C94.5778 53.4309 93.7734 54.8609 92.6562 56.2463C91.539 57.6316 90.1314 58.7711 88.4333 59.6648C86.7351 60.5139 84.7689 60.9384 82.5345 60.9384C79.317 60.9384 76.5464 60.2011 74.2226 58.7264C71.9436 57.2517 70.1784 55.2184 68.9272 52.6266C67.7206 49.99 67.1173 46.9736 67.1173 43.5774C67.1173 39.6449 67.743 36.271 68.9942 33.4556C70.2455 30.5956 72.0106 28.406 74.2897 26.8866C76.5687 25.3225 79.2276 24.5405 82.2664 24.5405ZM117.45 12.5419C118.388 12.5866 119.617 12.6313 121.137 12.676C122.656 12.7206 124.153 12.743 125.628 12.743C127.728 12.743 129.739 12.7206 131.661 12.676C133.582 12.6313 134.945 12.6089 135.749 12.6089C140.442 12.6089 143.972 13.5921 146.34 15.5583C148.709 17.5246 149.893 20.0494 149.893 23.1328C149.893 24.6969 149.558 26.2386 148.888 27.758C148.262 29.2327 147.189 30.5956 145.67 31.8469C144.195 33.0535 142.207 34.0366 139.704 34.7963V34.9303C143.235 35.3772 145.983 36.2263 147.949 37.4775C149.96 38.6841 151.368 40.1141 152.172 41.7675C152.976 43.4209 153.379 45.1638 153.379 46.9959C153.379 49.5431 152.731 51.7998 151.435 53.7661C150.184 55.6877 148.351 57.207 145.938 58.3242C143.525 59.4414 140.643 60 137.291 60C136.308 60 134.833 59.9777 132.867 59.933C130.901 59.8436 128.532 59.7989 125.762 59.7989C124.198 59.7989 122.656 59.8213 121.137 59.8659C119.617 59.8659 118.388 59.9106 117.45 60V58.6594C118.969 58.57 120.109 58.3913 120.869 58.1231C121.673 57.855 122.209 57.3188 122.477 56.5144C122.745 55.71 122.879 54.5034 122.879 52.8947V19.6472C122.879 17.9938 122.745 16.7872 122.477 16.0275C122.209 15.2231 121.673 14.6869 120.869 14.4188C120.109 14.106 118.969 13.9272 117.45 13.8825V12.5419ZM134.074 13.8825C132.018 13.8825 130.677 14.2624 130.052 15.0221C129.426 15.7817 129.113 17.3235 129.113 19.6472V52.8947C129.113 54.4588 129.247 55.643 129.516 56.4473C129.784 57.2517 130.275 57.788 130.99 58.0561C131.705 58.3242 132.755 58.4583 134.141 58.4583C138.52 58.4583 141.693 57.4528 143.659 55.4419C145.67 53.3863 146.676 50.4816 146.676 46.7278C146.676 43.2869 145.737 40.628 143.86 38.7511C142.028 36.8742 138.989 35.9358 134.744 35.9358H127.84C127.84 35.9358 127.84 35.757 127.84 35.3995C127.84 34.9974 127.84 34.7963 127.84 34.7963H133.604C136.241 34.7963 138.274 34.3047 139.704 33.3216C141.134 32.2938 142.117 30.9531 142.654 29.2997C143.19 27.6016 143.458 25.7917 143.458 23.8702C143.458 20.5633 142.721 18.0831 141.246 16.4297C139.816 14.7316 137.425 13.8825 134.074 13.8825ZM188.774 24.7416V52.7606C188.774 54.7716 189.132 56.2686 189.847 57.2517C190.606 58.1902 191.947 58.6594 193.869 58.6594V60.067C192.483 59.933 191.098 59.8659 189.713 59.8659C188.417 59.8659 187.166 59.933 185.959 60.067C184.797 60.2011 183.725 60.4469 182.741 60.8044V52.8947C181.624 55.7994 180.038 57.8773 177.982 59.1286C175.971 60.3352 173.893 60.9384 171.748 60.9384C170.184 60.9384 168.821 60.715 167.659 60.2681C166.498 59.8213 165.537 59.1956 164.777 58.3913C163.928 57.4975 163.347 56.3356 163.034 54.9056C162.721 53.4756 162.565 51.7105 162.565 49.6102V32.7853C162.565 30.7744 162.208 29.2997 161.493 28.3613C160.778 27.3781 159.437 26.8866 157.471 26.8866V25.4789C158.901 25.613 160.286 25.68 161.627 25.68C162.923 25.68 164.151 25.613 165.313 25.4789C166.52 25.3002 167.615 25.0544 168.598 24.7416V51.0848C168.598 52.4702 168.687 53.7438 168.866 54.9056C169.045 56.0675 169.492 57.0059 170.207 57.7209C170.922 58.4359 172.084 58.7934 173.692 58.7934C175.435 58.7934 176.977 58.2572 178.317 57.1847C179.703 56.1122 180.775 54.6598 181.535 52.8277C182.339 50.9955 182.741 48.9398 182.741 46.6608V32.7853C182.741 30.7744 182.384 29.2997 181.669 28.3613C180.954 27.3781 179.613 26.8866 177.647 26.8866V25.4789C179.077 25.613 180.462 25.68 181.803 25.68C183.099 25.68 184.328 25.613 185.49 25.4789C186.696 25.3002 187.791 25.0544 188.774 24.7416ZM204.932 8.72112C206.094 8.72112 207.1 9.14565 207.949 9.99471C208.798 10.8438 209.222 11.8492 209.222 13.0111C209.222 14.173 208.798 15.1785 207.949 16.0275C207.1 16.8766 206.094 17.3011 204.932 17.3011C203.771 17.3011 202.765 16.8766 201.916 16.0275C201.067 15.1785 200.642 14.173 200.642 13.0111C200.642 11.8492 201.067 10.8438 201.916 9.99471C202.765 9.14565 203.771 8.72112 204.932 8.72112ZM208.418 24.7416V53.7661C208.418 55.643 208.798 56.9166 209.558 57.5869C210.362 58.2572 211.68 58.5923 213.512 58.5923V60C212.753 59.9553 211.591 59.9106 210.027 59.8659C208.507 59.7766 206.966 59.7319 205.402 59.7319C203.882 59.7319 202.341 59.7766 200.777 59.8659C199.212 59.9106 198.051 59.9553 197.291 60V58.5923C199.123 58.5923 200.419 58.2572 201.179 57.5869C201.983 56.9166 202.385 55.643 202.385 53.7661V32.7853C202.385 30.7744 202.028 29.2997 201.313 28.3613C200.598 27.3781 199.257 26.8866 197.291 26.8866V25.4789C198.721 25.613 200.106 25.68 201.447 25.68C202.743 25.68 203.972 25.613 205.134 25.4789C206.34 25.3002 207.435 25.0544 208.418 24.7416ZM227.587 7.44753V53.7661C227.587 55.643 227.967 56.9166 228.726 57.5869C229.531 58.2572 230.849 58.5923 232.681 58.5923V60C231.922 59.9553 230.76 59.9106 229.196 59.8659C227.676 59.7766 226.135 59.7319 224.571 59.7319C223.051 59.7319 221.509 59.7766 219.945 59.8659C218.381 59.9106 217.219 59.9553 216.46 60V58.5923C218.292 58.5923 219.588 58.2572 220.348 57.5869C221.152 56.9166 221.554 55.643 221.554 53.7661V15.4913C221.554 13.4803 221.197 12.0056 220.482 11.0672C219.767 10.0841 218.426 9.59253 216.46 9.59253V8.18487C217.89 8.31893 219.275 8.38596 220.616 8.38596C221.912 8.38596 223.141 8.31893 224.302 8.18487C225.509 8.00612 226.604 7.76034 227.587 7.44753ZM265.953 7.44753V52.6936C265.953 54.7045 266.311 56.2016 267.026 57.1847C267.786 58.1231 269.126 58.5923 271.048 58.5923V60C269.662 59.8659 268.277 59.7989 266.892 59.7989C265.596 59.7989 264.345 59.8659 263.138 60C261.976 60.1341 260.904 60.3798 259.921 60.7373V15.4913C259.921 13.4803 259.563 12.0056 258.848 11.0672C258.133 10.0841 256.792 9.59253 254.826 9.59253V8.18487C256.256 8.31893 257.642 8.38596 258.982 8.38596C260.278 8.38596 261.507 8.31893 262.669 8.18487C263.875 8.00612 264.97 7.76034 265.953 7.44753ZM251.877 24.5405C253.843 24.5405 255.675 25.0097 257.373 25.9481C259.116 26.8866 260.278 28.4953 260.859 30.7744L259.988 31.4447C259.362 29.5678 258.379 28.2049 257.038 27.3558C255.742 26.5067 254.201 26.0822 252.413 26.0822C249.777 26.0822 247.564 27.4452 245.777 30.1711C244.034 32.897 243.185 37.0977 243.23 42.773C243.23 46.3927 243.565 49.4091 244.235 51.8222C244.95 54.1906 245.978 55.9781 247.319 57.1847C248.704 58.3466 250.38 58.9275 252.346 58.9275C254.223 58.9275 255.921 58.1231 257.44 56.5144C258.96 54.9056 259.876 52.5372 260.189 49.4091L260.993 50.3475C260.636 53.7438 259.541 56.358 257.709 58.1902C255.921 60.0223 253.486 60.9384 250.402 60.9384C247.632 60.9384 245.196 60.2681 243.096 58.9275C241.04 57.5869 239.454 55.5759 238.337 52.8947C237.264 50.2134 236.728 46.8395 236.728 42.773C236.728 38.7064 237.42 35.3325 238.806 32.6513C240.236 29.9253 242.09 27.892 244.369 26.5514C246.693 25.2108 249.196 24.5405 251.877 24.5405ZM68.7973 76.5419V77.8825C67.9483 78.0613 67.0098 78.5752 65.982 79.4242C64.9542 80.2286 64.1275 81.6586 63.5018 83.7142L50.8329 124.335C50.7436 124.335 50.6542 124.335 50.5648 124.335C50.4754 124.335 50.3861 124.335 50.2967 124.335C50.2073 124.335 50.1179 124.335 50.0286 124.335C49.9392 124.335 49.8498 124.335 49.7604 124.335L35.5498 82.1725C34.9689 80.4297 34.3209 79.2902 33.6059 78.7539C32.8909 78.2177 32.2206 77.9272 31.595 77.8825V76.5419C32.3994 76.5866 33.4048 76.6313 34.6114 76.676C35.818 76.7206 36.9798 76.743 38.097 76.743C39.8398 76.743 41.4709 76.7206 42.9903 76.676C44.5097 76.6313 45.7386 76.5866 46.677 76.5419V77.8825C45.3364 77.9272 44.2639 78.0613 43.4595 78.2847C42.6998 78.5081 42.253 78.9997 42.1189 79.7594C42.0295 80.5191 42.253 81.7703 42.7892 83.5131L52.7769 114.415L51.8384 115.219L60.6865 87.401C61.4909 84.9431 61.8484 83.0439 61.759 81.7033C61.7143 80.318 61.2228 79.3572 60.2843 78.821C59.3459 78.24 57.9383 77.9272 56.0614 77.8825V76.5419C57.3573 76.5866 58.6756 76.6313 60.0162 76.676C61.3568 76.7206 62.6081 76.743 63.77 76.743C64.9318 76.743 65.8926 76.7206 66.6523 76.676C67.412 76.6313 68.127 76.5866 68.7973 76.5419ZM21.9425 76.5419V77.8825C20.7806 77.9719 19.9316 78.1953 19.3953 78.5528C18.9037 78.9103 18.658 79.4913 18.658 80.2956C18.7027 81.0553 18.9484 82.1278 19.3953 83.5131L29.7851 115.219L28.1094 116.895L37.4937 86.9317L38.4992 88.5405L27.4391 124.335C27.3497 124.335 27.2603 124.335 27.1709 124.335C27.0816 124.335 26.9922 124.335 26.9028 124.335C26.8134 124.335 26.7241 124.335 26.6347 124.335C26.5453 124.335 26.4559 124.335 26.3666 124.335L12.1559 82.1725C11.575 80.4297 10.8377 79.2902 9.94391 78.7539C9.05016 78.2177 8.24578 77.9272 7.53078 77.8825V76.5419C8.42453 76.5866 9.51937 76.6313 10.8153 76.676C12.1559 76.7206 13.4519 76.743 14.7031 76.743C16.1778 76.743 17.5408 76.7206 18.792 76.676C20.088 76.6313 21.1381 76.5866 21.9425 76.5419ZM82.2664 88.5405C86.1989 88.5405 89.26 89.747 91.4497 92.1602C93.684 94.5286 94.8012 98.2377 94.8012 103.287H71.1392L71.0722 102.014H88.3662C88.4556 99.8241 88.2769 97.8131 87.83 95.981C87.3831 94.1041 86.6681 92.607 85.685 91.4899C84.7466 90.3727 83.5176 89.8141 81.9983 89.8141C79.9426 89.8141 78.1105 90.8419 76.5017 92.8975C74.9376 94.9531 73.9992 98.2153 73.6864 102.684L73.8875 102.952C73.7981 103.623 73.7311 104.36 73.6864 105.164C73.6417 105.969 73.6194 106.773 73.6194 107.577C73.6194 110.616 74.1109 113.23 75.0941 115.42C76.0772 117.61 77.3508 119.285 78.9148 120.447C80.5236 121.565 82.177 122.123 83.8751 122.123C85.2158 122.123 86.4894 121.922 87.6959 121.52C88.9025 121.073 90.0197 120.358 91.0475 119.375C92.0753 118.392 92.969 117.073 93.7287 115.42L95.0694 115.956C94.5778 117.431 93.7734 118.861 92.6562 120.246C91.539 121.632 90.1314 122.771 88.4333 123.665C86.7351 124.514 84.7689 124.938 82.5345 124.938C79.317 124.938 76.5464 124.201 74.2226 122.726C71.9436 121.252 70.1784 119.218 68.9272 116.627C67.7206 113.99 67.1173 110.974 67.1173 107.577C67.1173 103.645 67.743 100.271 68.9942 97.4556C70.2455 94.5956 72.0106 92.406 74.2897 90.8866C76.5687 89.3225 79.2276 88.5405 82.2664 88.5405ZM119.794 88.5405C123.459 88.5405 126.498 90.0599 128.911 93.0986C131.324 96.0927 132.53 100.651 132.53 106.773C132.53 110.795 131.838 114.169 130.452 116.895C129.112 119.576 127.302 121.587 125.023 122.928C122.744 124.268 120.264 124.938 117.582 124.938C115.348 124.938 113.181 124.313 111.08 123.062C109.025 121.766 107.483 119.866 106.455 117.364L107.796 118.101C108.913 119.889 110.298 121.229 111.952 122.123C113.605 122.972 115.303 123.397 117.046 123.397C120.04 123.397 122.275 122.056 123.749 119.375C125.269 116.649 126.028 112.448 126.028 106.773C126.028 103.153 125.738 100.137 125.157 97.7238C124.576 95.3106 123.682 93.5231 122.476 92.3613C121.269 91.1547 119.727 90.5514 117.851 90.5514C115.795 90.5514 113.873 91.4899 112.086 93.3667C110.343 95.1989 109.271 97.9025 108.868 101.478L108.064 100.539C108.556 96.7406 109.874 93.7913 112.019 91.691C114.209 89.5906 116.8 88.5405 119.794 88.5405ZM109.338 71.5146V120.514C108.757 121.006 108.153 121.52 107.528 122.056C106.947 122.548 106.366 123.039 105.785 123.531C105.204 124.022 104.601 124.536 103.975 125.072L102.836 124.603C103.014 123.978 103.126 123.352 103.171 122.726C103.26 122.056 103.305 121.386 103.305 120.715V79.5583C103.305 77.5474 102.947 76.0727 102.232 75.1342C101.517 74.1511 100.177 73.6596 98.2104 73.6596V72.2519C99.6404 72.386 101.026 72.453 102.366 72.453C103.662 72.453 104.891 72.386 106.053 72.2519C107.26 72.0732 108.354 71.8274 109.338 71.5146ZM149.655 88.5405C151.443 88.5405 152.962 88.831 154.213 89.4119C155.465 89.9928 156.381 90.5291 156.962 91.0206C158.436 92.2272 159.33 91.4228 159.643 88.6075H161.185C161.095 89.8588 161.028 91.3558 160.984 93.0986C160.939 94.7967 160.917 97.0981 160.917 100.003H159.375C159.107 98.3494 158.637 96.7406 157.967 95.1766C157.342 93.6125 156.403 92.3389 155.152 91.3558C153.901 90.328 152.269 89.8141 150.259 89.8141C148.694 89.8141 147.376 90.261 146.304 91.1547C145.276 92.0038 144.762 93.2774 144.762 94.9755C144.762 96.3161 145.164 97.478 145.969 98.4611C146.773 99.3995 147.823 100.293 149.119 101.142C150.415 101.947 151.823 102.84 153.342 103.824C155.04 104.896 156.582 105.991 157.967 107.108C159.352 108.225 160.447 109.454 161.252 110.795C162.101 112.135 162.525 113.722 162.525 115.554C162.525 117.61 161.989 119.33 160.917 120.715C159.844 122.101 158.436 123.151 156.694 123.866C154.995 124.581 153.119 124.938 151.063 124.938C150.08 124.938 149.141 124.849 148.248 124.67C147.399 124.536 146.572 124.313 145.767 124C145.321 123.777 144.851 123.508 144.36 123.196C143.913 122.883 143.466 122.548 143.019 122.19C142.572 121.833 142.17 121.855 141.813 122.257C141.455 122.615 141.187 123.352 141.008 124.469H139.467C139.556 123.039 139.623 121.296 139.668 119.241C139.712 117.185 139.735 114.459 139.735 111.063H141.276C141.589 113.565 142.036 115.755 142.617 117.632C143.198 119.509 144.114 120.984 145.365 122.056C146.617 123.084 148.359 123.598 150.594 123.598C151.487 123.598 152.381 123.397 153.275 122.995C154.213 122.592 154.995 121.922 155.621 120.984C156.247 120.045 156.559 118.794 156.559 117.23C156.559 115.264 155.844 113.655 154.414 112.404C152.984 111.152 151.175 109.834 148.985 108.449C147.376 107.421 145.857 106.393 144.427 105.365C143.042 104.338 141.902 103.176 141.008 101.88C140.159 100.584 139.735 99.0197 139.735 97.1875C139.735 95.1766 140.182 93.5455 141.075 92.2942C142.014 90.9983 143.243 90.0599 144.762 89.4789C146.281 88.8533 147.912 88.5405 149.655 88.5405ZM175.279 72.7211C176.441 72.7211 177.446 73.1457 178.295 73.9947C179.144 74.8438 179.569 75.8492 179.569 77.0111C179.569 78.173 179.144 79.1785 178.295 80.0275C177.446 80.8766 176.441 81.3011 175.279 81.3011C174.117 81.3011 173.112 80.8766 172.263 80.0275C171.414 79.1785 170.989 78.173 170.989 77.0111C170.989 75.8492 171.414 74.8438 172.263 73.9947C173.112 73.1457 174.117 72.7211 175.279 72.7211ZM178.765 88.7416V117.766C178.765 119.643 179.144 120.917 179.904 121.587C180.709 122.257 182.027 122.592 183.859 122.592V124C183.099 123.955 181.937 123.911 180.373 123.866C178.854 123.777 177.312 123.732 175.748 123.732C174.229 123.732 172.687 123.777 171.123 123.866C169.559 123.911 168.397 123.955 167.637 124V122.592C169.47 122.592 170.766 122.257 171.525 121.587C172.33 120.917 172.732 119.643 172.732 117.766V96.7853C172.732 94.7744 172.374 93.2997 171.659 92.3613C170.944 91.3781 169.604 90.8866 167.637 90.8866V89.4789C169.067 89.613 170.453 89.68 171.793 89.68C173.089 89.68 174.318 89.613 175.48 89.4789C176.687 89.3002 177.782 89.0544 178.765 88.7416ZM198.068 78.3517V89.546H207.988V90.8866H198.068V116.828C198.068 118.928 198.447 120.403 199.207 121.252C199.967 122.101 201.017 122.525 202.358 122.525C203.698 122.525 204.86 121.989 205.843 120.917C206.826 119.799 207.675 117.945 208.39 115.353L209.731 115.688C209.284 118.28 208.39 120.47 207.05 122.257C205.754 124.045 203.743 124.938 201.017 124.938C199.498 124.938 198.246 124.737 197.263 124.335C196.28 123.978 195.409 123.441 194.649 122.726C193.666 121.699 192.973 120.47 192.571 119.04C192.213 117.61 192.035 115.71 192.035 113.342V90.8866H185.6V89.546H192.035V79.2902C193.152 79.2455 194.224 79.1561 195.252 79.0221C196.28 78.888 197.218 78.6646 198.068 78.3517ZM227.261 88.5405C231.193 88.5405 234.254 89.747 236.444 92.1602C238.678 94.5286 239.795 98.2377 239.795 103.287H216.133L216.066 102.014H233.36C233.45 99.8241 233.271 97.8131 232.824 95.981C232.377 94.1041 231.662 92.607 230.679 91.4899C229.741 90.3727 228.512 89.8141 226.993 89.8141C224.937 89.8141 223.105 90.8419 221.496 92.8975C219.932 94.9531 218.993 98.2153 218.681 102.684L218.882 102.952C218.792 103.623 218.725 104.36 218.681 105.164C218.636 105.969 218.614 106.773 218.614 107.577C218.614 110.616 219.105 113.23 220.088 115.42C221.071 117.61 222.345 119.285 223.909 120.447C225.518 121.565 227.171 122.123 228.869 122.123C230.21 122.123 231.484 121.922 232.69 121.52C233.897 121.073 235.014 120.358 236.042 119.375C237.07 118.392 237.963 117.073 238.723 115.42L240.064 115.956C239.572 117.431 238.768 118.861 237.65 120.246C236.533 121.632 235.126 122.771 233.428 123.665C231.729 124.514 229.763 124.938 227.529 124.938C224.311 124.938 221.541 124.201 219.217 122.726C216.938 121.252 215.173 119.218 213.921 116.627C212.715 113.99 212.112 110.974 212.112 107.577C212.112 103.645 212.737 100.271 213.988 97.4556C215.24 94.5956 217.005 92.406 219.284 90.8866C221.563 89.3225 224.222 88.5405 227.261 88.5405ZM256.879 88.5405C258.667 88.5405 260.186 88.831 261.437 89.4119C262.688 89.9928 263.604 90.5291 264.185 91.0206C265.66 92.2272 266.554 91.4228 266.867 88.6075H268.408C268.319 89.8588 268.252 91.3558 268.207 93.0986C268.163 94.7967 268.14 97.0981 268.14 100.003H266.599C266.33 98.3494 265.861 96.7406 265.191 95.1766C264.565 93.6125 263.627 92.3389 262.376 91.3558C261.124 90.328 259.493 89.8141 257.482 89.8141C255.918 89.8141 254.6 90.261 253.527 91.1547C252.5 92.0038 251.986 93.2774 251.986 94.9755C251.986 96.3161 252.388 97.478 253.192 98.4611C253.997 99.3995 255.047 100.293 256.343 101.142C257.639 101.947 259.046 102.84 260.566 103.824C262.264 104.896 263.806 105.991 265.191 107.108C266.576 108.225 267.671 109.454 268.475 110.795C269.324 112.135 269.749 113.722 269.749 115.554C269.749 117.61 269.213 119.33 268.14 120.715C267.068 122.101 265.66 123.151 263.917 123.866C262.219 124.581 260.342 124.938 258.287 124.938C257.304 124.938 256.365 124.849 255.471 124.67C254.622 124.536 253.796 124.313 252.991 124C252.544 123.777 252.075 123.508 251.584 123.196C251.137 122.883 250.69 122.548 250.243 122.19C249.796 121.833 249.394 121.855 249.036 122.257C248.679 122.615 248.411 123.352 248.232 124.469H246.69C246.78 123.039 246.847 121.296 246.891 119.241C246.936 117.185 246.958 114.459 246.958 111.063H248.5C248.813 113.565 249.26 115.755 249.841 117.632C250.422 119.509 251.338 120.984 252.589 122.056C253.84 123.084 255.583 123.598 257.817 123.598C258.711 123.598 259.605 123.397 260.499 122.995C261.437 122.592 262.219 121.922 262.845 120.984C263.47 120.045 263.783 118.794 263.783 117.23C263.783 115.264 263.068 113.655 261.638 112.404C260.208 111.152 258.398 109.834 256.209 108.449C254.6 107.421 253.081 106.393 251.651 105.365C250.265 104.338 249.126 103.176 248.232 101.88C247.383 100.584 246.958 99.0197 246.958 97.1875C246.958 95.1766 247.405 93.5455 248.299 92.2942C249.237 90.9983 250.466 90.0599 251.986 89.4789C253.505 88.8533 255.136 88.5405 256.879 88.5405ZM47.6825 140.542C47.5037 142.24 47.3697 143.893 47.2803 145.502C47.2356 147.066 47.2133 148.273 47.2133 149.122C47.2133 150.194 47.2356 151.2 47.2803 152.138C47.325 153.077 47.3697 153.903 47.4144 154.618H45.8726C45.5598 151.49 45.1353 149.033 44.599 147.245C44.0628 145.413 43.1244 144.095 41.7837 143.29C40.4431 142.486 38.3651 142.084 35.5498 142.084H31.9301V180.224C31.9301 182.012 32.0866 183.353 32.3994 184.246C32.7569 185.14 33.4272 185.743 34.4103 186.056C35.3934 186.369 36.8234 186.57 38.7003 186.659V188C37.5384 187.911 36.0637 187.866 34.2762 187.866C32.4887 187.821 30.6789 187.799 28.8467 187.799C26.8358 187.799 24.9366 187.821 23.1491 187.866C21.4062 187.866 19.9986 187.911 18.9261 188V186.659C20.803 186.57 22.233 186.369 23.2161 186.056C24.1992 185.743 24.8472 185.14 25.16 184.246C25.5175 183.353 25.6962 182.012 25.6962 180.224V142.084H22.0766C19.3059 142.084 17.228 142.486 15.8427 143.29C14.502 144.095 13.5636 145.413 13.0273 147.245C12.4911 149.033 12.0666 151.49 11.7537 154.618H10.212C10.3014 153.903 10.3461 153.077 10.3461 152.138C10.3908 151.2 10.4131 150.194 10.4131 149.122C10.4131 148.273 10.3684 147.066 10.2791 145.502C10.2344 143.893 10.1227 142.24 9.94391 140.542C11.8208 140.587 13.8541 140.631 16.0437 140.676C18.2781 140.721 20.5125 140.743 22.7469 140.743C24.9812 140.743 27.0145 140.743 28.8467 140.743C30.6789 140.743 32.6898 140.743 34.8795 140.743C37.1139 140.743 39.3483 140.721 41.5826 140.676C43.817 140.631 45.8503 140.587 47.6825 140.542ZM61.7077 135.515V160.584C62.8696 157.545 64.4783 155.445 66.534 154.283C68.6343 153.121 70.824 152.54 73.103 152.54C74.8011 152.54 76.2088 152.764 77.326 153.211C78.4879 153.658 79.4486 154.283 80.2083 155.088C81.0574 155.981 81.6607 157.099 82.0182 158.439C82.3757 159.78 82.5544 161.59 82.5544 163.869V181.766C82.5544 183.643 82.9343 184.917 83.6939 185.587C84.4983 186.257 85.8166 186.592 87.6488 186.592V188C86.8891 187.955 85.7272 187.911 84.1632 187.866C82.5991 187.777 81.0797 187.732 79.605 187.732C78.1304 187.732 76.678 187.777 75.248 187.866C73.8627 187.911 72.8126 187.955 72.0976 188V186.592C73.7063 186.592 74.8458 186.257 75.5161 185.587C76.1865 184.917 76.5216 183.643 76.5216 181.766V162.394C76.5216 161.009 76.4099 159.735 76.1865 158.573C75.963 157.411 75.4491 156.473 74.6447 155.758C73.885 155.043 72.7008 154.685 71.0921 154.685C69.2599 154.685 67.6288 155.199 66.1988 156.227C64.8135 157.255 63.7186 158.685 62.9143 160.517C62.1099 162.349 61.7077 164.45 61.7077 166.818V181.766C61.7077 183.643 62.0429 184.917 62.7132 185.587C63.3835 186.257 64.523 186.592 66.1318 186.592V188C65.4168 187.955 64.3443 187.911 62.9143 187.866C61.529 187.777 60.099 187.732 58.6243 187.732C57.1496 187.732 55.6302 187.777 54.0662 187.866C52.5021 187.911 51.3402 187.955 50.5805 188V186.592C52.4127 186.592 53.7087 186.257 54.4683 185.587C55.2727 184.917 55.6749 183.643 55.6749 181.766V143.558C55.6749 141.547 55.3174 140.073 54.6024 139.134C53.8874 138.151 52.5468 137.66 50.5805 137.66V136.252C52.0105 136.386 53.3958 136.453 54.7365 136.453C56.0324 136.453 57.2613 136.386 58.4232 136.252C59.6297 136.073 60.7246 135.827 61.7077 135.515ZM100.109 188.469C98.2771 188.469 96.6907 188.134 95.35 187.464C94.0094 186.749 92.9816 185.766 92.2666 184.514C91.5963 183.263 91.2611 181.811 91.2611 180.157C91.2611 178.191 91.708 176.582 92.6018 175.331C93.5402 174.08 94.7244 173.074 96.1544 172.315C97.5844 171.555 99.0815 170.929 100.646 170.438C102.254 169.902 103.774 169.41 105.204 168.963C106.634 168.472 107.796 167.913 108.689 167.287C109.628 166.662 110.097 165.835 110.097 164.807V160.651C110.097 158.774 109.806 157.344 109.226 156.361C108.689 155.378 107.952 154.73 107.013 154.417C106.075 154.06 105.025 153.881 103.863 153.881C102.746 153.881 101.539 154.038 100.243 154.35C98.9921 154.663 97.9866 155.311 97.2269 156.294C98.076 156.473 98.8133 156.92 99.439 157.635C100.065 158.35 100.377 159.266 100.377 160.383C100.377 161.5 100.02 162.394 99.3049 163.064C98.5899 163.69 97.6738 164.003 96.5566 164.003C95.2607 164.003 94.2999 163.601 93.6743 162.796C93.0933 161.947 92.8029 161.009 92.8029 159.981C92.8029 158.819 93.0933 157.881 93.6743 157.166C94.2552 156.451 94.9925 155.78 95.8863 155.155C96.9141 154.44 98.2324 153.836 99.8411 153.345C101.495 152.809 103.349 152.54 105.405 152.54C107.237 152.54 108.801 152.764 110.097 153.211C111.393 153.613 112.465 154.216 113.314 155.021C114.476 156.093 115.236 157.411 115.593 158.975C115.951 160.495 116.13 162.327 116.13 164.472V183.107C116.13 184.224 116.286 185.028 116.599 185.52C116.956 186.011 117.493 186.257 118.208 186.257C118.699 186.257 119.168 186.145 119.615 185.922C120.062 185.699 120.598 185.341 121.224 184.85L121.961 185.989C121.023 186.704 120.129 187.307 119.28 187.799C118.431 188.246 117.292 188.469 115.862 188.469C114.566 188.469 113.493 188.246 112.644 187.799C111.795 187.352 111.147 186.704 110.7 185.855C110.298 184.961 110.097 183.844 110.097 182.503C108.89 184.514 107.438 186.011 105.74 186.995C104.086 187.978 102.21 188.469 100.109 188.469ZM102.522 185.788C103.997 185.788 105.36 185.363 106.611 184.514C107.907 183.665 109.069 182.392 110.097 180.694V167.555C109.561 168.315 108.779 168.963 107.751 169.499C106.723 169.991 105.606 170.505 104.399 171.041C103.193 171.533 102.031 172.136 100.914 172.851C99.8411 173.521 98.9474 174.415 98.2324 175.532C97.5174 176.649 97.1599 178.102 97.1599 179.889C97.1599 181.677 97.6291 183.107 98.5675 184.179C99.5507 185.252 100.869 185.788 102.522 185.788ZM134.768 142.352V153.546H144.688V154.887H134.768V180.828C134.768 182.928 135.147 184.403 135.907 185.252C136.667 186.101 137.717 186.525 139.058 186.525C140.398 186.525 141.56 185.989 142.543 184.917C143.526 183.799 144.375 181.945 145.09 179.353L146.431 179.688C145.984 182.28 145.09 184.47 143.75 186.257C142.454 188.045 140.443 188.938 137.717 188.938C136.198 188.938 134.946 188.737 133.963 188.335C132.98 187.978 132.109 187.441 131.349 186.726C130.366 185.699 129.673 184.47 129.271 183.04C128.913 181.61 128.735 179.71 128.735 177.342V154.887H122.3V153.546H128.735V143.29C129.852 143.245 130.924 143.156 131.952 143.022C132.98 142.888 133.918 142.665 134.768 142.352Z" fill="white"/>
<defs>
<linearGradient id="paint0_linear_144_204" x1="82.72" y1="205" x2="81.28" y2="274.804" gradientUnits="userSpaceOnUse">
<stop stop-color="white"/>
<stop offset="1" stop-color="white" stop-opacity="0"/>
</linearGradient>
</defs>
</svg>
