<svg width="83" height="107" viewBox="0 0 83 107" fill="none" xmlns="http://www.w3.org/2000/svg">
<path d="M41.5 80.0357C38.5191 80.0363 35.6473 78.9141 33.4566 76.8926C31.2658 74.871 29.9169 72.0985 29.6784 69.1271C21.7708 66.3281 15.1063 60.8254 10.8613 53.5905C6.61627 46.3555 5.06372 37.8535 6.47771 29.5851C7.89169 21.3168 12.1813 13.8138 18.5893 8.40067C24.9973 2.98751 33.1116 0.0122155 41.5 3.74057e-07C50.4219 -0.00129274 59.0185 3.35016 65.5852 9.38982C72.152 15.4295 76.2094 23.7163 76.9528 32.6071C76.9776 32.9928 76.9219 33.3794 76.7892 33.7423C76.6566 34.1053 76.4499 34.4367 76.1822 34.7154C75.9146 34.9942 75.5919 35.2143 75.2347 35.3616C74.8775 35.509 74.4935 35.5804 74.1071 35.5714C73.313 35.5515 72.5547 35.2371 71.9795 34.6893C71.4042 34.1414 71.0532 33.3993 70.9946 32.6071C70.4666 27.3653 68.5511 22.3589 65.4454 18.1033C62.3396 13.8477 58.1558 10.4968 53.3247 8.39537C48.4936 6.29398 43.1897 5.51809 37.9591 6.1476C32.7285 6.7771 27.7601 8.78925 23.5655 11.9769C19.3709 15.1645 16.1017 19.4125 14.0943 24.2834C12.0869 29.1544 11.414 34.4723 12.1447 39.6897C12.8755 44.9072 14.9835 49.8356 18.2519 53.9676C21.5202 58.0996 25.8307 61.286 30.7396 63.1986C31.6329 61.2685 33.0287 59.6142 34.781 58.4091C36.5332 57.2039 38.5774 56.4922 40.6992 56.3485C42.8211 56.2048 44.9425 56.6345 46.8413 57.5924C48.74 58.5504 50.3461 60.0014 51.4914 61.7934C52.6366 63.5854 53.2788 65.6525 53.3507 67.778C53.4225 69.9034 52.9214 72.0091 51.8998 73.8744C50.8782 75.7397 49.3737 77.2958 47.544 78.3798C45.7143 79.4638 43.6267 80.0357 41.5 80.0357ZM11.9105 65.2143H12.45C14.7621 67.4731 17.3292 69.4651 20.1097 71.1428H11.9105C8.58457 71.1428 5.92857 73.7929 5.92857 77.0714C5.92857 84.8319 9.61614 90.6123 15.8471 94.5785C22.1906 98.6277 31.2139 100.786 41.5 100.786C51.7861 100.786 60.8093 98.6277 67.1529 94.5785C73.3779 90.6063 77.0714 84.8378 77.0714 77.0714C77.0714 75.4991 76.4468 73.9911 75.335 72.8793C74.2232 71.7675 72.7152 71.1428 71.1428 71.1428H59.0426C59.3743 69.1806 59.3743 67.1765 59.0426 65.2143H71.1428C74.2876 65.2143 77.3035 66.4635 79.5271 68.6872C81.7508 70.9108 83 73.9267 83 77.0714C83 87.0966 78.0615 94.6556 70.3425 99.5822C62.7421 104.426 52.4975 106.714 41.5 106.714C30.5025 106.714 20.2579 104.426 12.6575 99.5822C4.9385 94.6615 0 87.0907 0 77.0714C0 70.4729 5.3535 65.2143 11.9105 65.2143ZM65.2143 35.5714C65.2156 39.5829 64.1992 43.5292 62.2603 47.041C60.3214 50.5528 57.5233 53.5154 54.1279 55.6515C52.5451 54.0556 50.6743 52.7741 48.6143 51.875C52.3592 50.2406 55.4272 47.3665 57.3024 43.736C59.1775 40.1056 59.7454 35.9402 58.9105 31.9403C58.0757 27.9404 55.8891 24.3499 52.7183 21.7726C49.5476 19.1953 45.5861 17.7884 41.5 17.7884C37.4139 17.7884 33.4524 19.1953 30.2817 21.7726C27.1109 24.3499 24.9243 27.9404 24.0894 31.9403C23.2546 35.9402 23.8225 40.1056 25.6976 43.736C27.5728 47.3665 30.6407 50.2406 34.3857 51.875C32.3107 52.7821 30.4432 54.0686 28.8721 55.6515C24.3689 52.8195 20.9487 48.5557 19.1611 43.5454C18.2492 40.9858 17.784 38.2886 17.7857 35.5714C17.7857 29.282 20.2842 23.2502 24.7315 18.8029C29.1788 14.3556 35.2106 11.8571 41.5 11.8571C47.7894 11.8571 53.8212 14.3556 58.2685 18.8029C62.7158 23.2502 65.2143 29.282 65.2143 35.5714Z" fill="white"/>
</svg>
